<svg id="visual" viewBox="0 0 1920 1080" width="1920" height="1080" xmlns="http://www.w3.org/2000/svg" xmlns:xlink="http://www.w3.org/1999/xlink" version="1.1"><rect x="0" y="0" width="1920" height="1080" fill="#fff7ec"></rect><path d="M0 104L13.8 112.7C27.7 121.3 55.3 138.7 83.2 145.5C111 152.3 139 148.7 166.8 140.3C194.7 132 222.3 119 250.2 119.3C278 119.7 306 133.3 333.8 135.2C361.7 137 389.3 127 417.2 122.8C445 118.7 473 120.3 500.8 129C528.7 137.7 556.3 153.3 584.2 161.2C612 169 640 169 667.8 171.3C695.7 173.7 723.3 178.3 751.2 170.2C779 162 807 141 834.8 139.5C862.7 138 890.3 156 918.2 153C946 150 974 126 1001.8 124.3C1029.7 122.7 1057.3 143.3 1085.2 151.3C1113 159.3 1141 154.7 1168.8 158.2C1196.7 161.7 1224.3 173.3 1252.2 179.3C1280 185.3 1308 185.7 1335.8 185C1363.7 184.3 1391.3 182.7 1419.2 173.2C1447 163.7 1475 146.3 1502.8 144.7C1530.7 143 1558.3 157 1586.2 164C1614 171 1642 171 1669.8 160.3C1697.7 149.7 1725.3 128.3 1753.2 121.5C1781 114.7 1809 122.3 1836.8 127.3C1864.7 132.3 1892.3 134.7 1906.2 135.8L1920 137L1920 0L1906.2 0C1892.3 0 1864.7 0 1836.8 0C1809 0 1781 0 1753.2 0C1725.3 0 1697.7 0 1669.8 0C1642 0 1614 0 1586.2 0C1558.3 0 1530.7 0 1502.8 0C1475 0 1447 0 1419.2 0C1391.3 0 1363.7 0 1335.8 0C1308 0 1280 0 1252.2 0C1224.3 0 1196.7 0 1168.8 0C1141 0 1113 0 1085.2 0C1057.3 0 1029.7 0 1001.8 0C974 0 946 0 918.2 0C890.3 0 862.7 0 834.8 0C807 0 779 0 751.2 0C723.3 0 695.7 0 667.8 0C640 0 612 0 584.2 0C556.3 0 528.7 0 500.8 0C473 0 445 0 417.2 0C389.3 0 361.7 0 333.8 0C306 0 278 0 250.2 0C222.3 0 194.7 0 166.8 0C139 0 111 0 83.2 0C55.3 0 27.7 0 13.8 0L0 0Z" fill="#be2023"></path><path d="M0 111L13.8 117.7C27.7 124.3 55.3 137.7 83.2 144.2C111 150.7 139 150.3 166.8 145.3C194.7 140.3 222.3 130.7 250.2 127C278 123.3 306 125.7 333.8 123.8C361.7 122 389.3 116 417.2 118.3C445 120.7 473 131.3 500.8 133.7C528.7 136 556.3 130 584.2 129.3C612 128.7 640 133.3 667.8 127.5C695.7 121.7 723.3 105.3 751.2 99.3C779 93.3 807 97.7 834.8 100C862.7 102.3 890.3 102.7 918.2 106.2C946 109.7 974 116.3 1001.8 118.5C1029.7 120.7 1057.3 118.3 1085.2 115.3C1113 112.3 1141 108.7 1168.8 112.3C1196.7 116 1224.3 127 1252.2 131.2C1280 135.3 1308 132.7 1335.8 128.3C1363.7 124 1391.3 118 1419.2 121.5C1447 125 1475 138 1502.8 134.7C1530.7 131.3 1558.3 111.7 1586.2 100.2C1614 88.7 1642 85.3 1669.8 88.5C1697.7 91.7 1725.3 101.3 1753.2 110.7C1781 120 1809 129 1836.8 129C1864.7 129 1892.3 120 1906.2 115.5L1920 111L1920 0L1906.2 0C1892.3 0 1864.7 0 1836.8 0C1809 0 1781 0 1753.2 0C1725.3 0 1697.7 0 1669.8 0C1642 0 1614 0 1586.2 0C1558.3 0 1530.7 0 1502.8 0C1475 0 1447 0 1419.2 0C1391.3 0 1363.7 0 1335.8 0C1308 0 1280 0 1252.2 0C1224.3 0 1196.7 0 1168.8 0C1141 0 1113 0 1085.2 0C1057.3 0 1029.7 0 1001.8 0C974 0 946 0 918.2 0C890.3 0 862.7 0 834.8 0C807 0 779 0 751.2 0C723.3 0 695.7 0 667.8 0C640 0 612 0 584.2 0C556.3 0 528.7 0 500.8 0C473 0 445 0 417.2 0C389.3 0 361.7 0 333.8 0C306 0 278 0 250.2 0C222.3 0 194.7 0 166.8 0C139 0 111 0 83.2 0C55.3 0 27.7 0 13.8 0L0 0Z" fill="#c80644"></path><path d="M0 110L13.8 101.2C27.7 92.3 55.3 74.7 83.2 74C111 73.3 139 89.7 166.8 90.2C194.7 90.7 222.3 75.3 250.2 73.7C278 72 306 84 333.8 87C361.7 90 389.3 84 417.2 83.7C445 83.3 473 88.7 500.8 88.5C528.7 88.3 556.3 82.7 584.2 85C612 87.3 640 97.7 667.8 96.3C695.7 95 723.3 82 751.2 74.5C779 67 807 65 834.8 67.3C862.7 69.7 890.3 76.3 918.2 83.2C946 90 974 97 1001.8 100.7C1029.7 104.3 1057.3 104.7 1085.2 106.3C1113 108 1141 111 1168.8 110.3C1196.7 109.7 1224.3 105.3 1252.2 99C1280 92.7 1308 84.3 1335.8 80.5C1363.7 76.7 1391.3 77.3 1419.2 83.5C1447 89.7 1475 101.3 1502.8 106C1530.7 110.7 1558.3 108.3 1586.2 107C1614 105.7 1642 105.3 1669.8 98.8C1697.7 92.3 1725.3 79.7 1753.2 81C1781 82.3 1809 97.7 1836.8 97.2C1864.7 96.7 1892.3 80.3 1906.2 72.2L1920 64L1920 0L1906.2 0C1892.3 0 1864.7 0 1836.8 0C1809 0 1781 0 1753.2 0C1725.3 0 1697.7 0 1669.8 0C1642 0 1614 0 1586.2 0C1558.3 0 1530.7 0 1502.8 0C1475 0 1447 0 1419.2 0C1391.3 0 1363.7 0 1335.8 0C1308 0 1280 0 1252.2 0C1224.3 0 1196.7 0 1168.8 0C1141 0 1113 0 1085.2 0C1057.3 0 1029.7 0 1001.8 0C974 0 946 0 918.2 0C890.3 0 862.7 0 834.8 0C807 0 779 0 751.2 0C723.3 0 695.7 0 667.8 0C640 0 612 0 584.2 0C556.3 0 528.7 0 500.8 0C473 0 445 0 417.2 0C389.3 0 361.7 0 333.8 0C306 0 278 0 250.2 0C222.3 0 194.7 0 166.8 0C139 0 111 0 83.2 0C55.3 0 27.7 0 13.8 0L0 0Z" fill="#c90666"></path><path d="M0 85L13.8 84.3C27.7 83.7 55.3 82.3 83.2 81.2C111 80 139 79 166.8 80C194.7 81 222.3 84 250.2 78.3C278 72.7 306 58.3 333.8 56.7C361.7 55 389.3 66 417.2 70.2C445 74.3 473 71.7 500.8 66.8C528.7 62 556.3 55 584.2 55.8C612 56.7 640 65.3 667.8 66.2C695.7 67 723.3 60 751.2 60.3C779 60.7 807 68.3 834.8 71.2C862.7 74 890.3 72 918.2 72.5C946 73 974 76 1001.8 71.2C1029.7 66.3 1057.3 53.7 1085.2 48.3C1113 43 1141 45 1168.8 46.5C1196.7 48 1224.3 49 1252.2 52.8C1280 56.7 1308 63.3 1335.8 64.3C1363.7 65.3 1391.3 60.7 1419.2 61.8C1447 63 1475 70 1502.8 73.3C1530.7 76.7 1558.3 76.3 1586.2 73.8C1614 71.3 1642 66.7 1669.8 64.3C1697.7 62 1725.3 62 1753.2 60.3C1781 58.7 1809 55.3 1836.8 52.3C1864.7 49.3 1892.3 46.7 1906.2 45.3L1920 44L1920 0L1906.2 0C1892.3 0 1864.7 0 1836.8 0C1809 0 1781 0 1753.2 0C1725.3 0 1697.7 0 1669.8 0C1642 0 1614 0 1586.2 0C1558.3 0 1530.7 0 1502.8 0C1475 0 1447 0 1419.2 0C1391.3 0 1363.7 0 1335.8 0C1308 0 1280 0 1252.2 0C1224.3 0 1196.7 0 1168.8 0C1141 0 1113 0 1085.2 0C1057.3 0 1029.7 0 1001.8 0C974 0 946 0 918.2 0C890.3 0 862.7 0 834.8 0C807 0 779 0 751.2 0C723.3 0 695.7 0 667.8 0C640 0 612 0 584.2 0C556.3 0 528.7 0 500.8 0C473 0 445 0 417.2 0C389.3 0 361.7 0 333.8 0C306 0 278 0 250.2 0C222.3 0 194.7 0 166.8 0C139 0 111 0 83.2 0C55.3 0 27.7 0 13.8 0L0 0Z" fill="#c12287"></path><path d="M0 52L13.8 47.7C27.7 43.3 55.3 34.7 83.2 28.7C111 22.7 139 19.3 166.8 22.5C194.7 25.7 222.3 35.3 250.2 37.2C278 39 306 33 333.8 27.8C361.7 22.7 389.3 18.3 417.2 16.7C445 15 473 16 500.8 22.8C528.7 29.7 556.3 42.3 584.2 41.7C612 41 640 27 667.8 20.5C695.7 14 723.3 15 751.2 19.7C779 24.3 807 32.7 834.8 34.5C862.7 36.3 890.3 31.7 918.2 31.5C946 31.3 974 35.7 1001.8 39.8C1029.7 44 1057.3 48 1085.2 47.2C1113 46.3 1141 40.7 1168.8 41.2C1196.7 41.7 1224.3 48.3 1252.2 49C1280 49.7 1308 44.3 1335.8 39.7C1363.7 35 1391.3 31 1419.2 30.2C1447 29.3 1475 31.7 1502.8 29.7C1530.7 27.7 1558.3 21.3 1586.2 19.5C1614 17.7 1642 20.3 1669.8 24.2C1697.7 28 1725.3 33 1753.2 32.5C1781 32 1809 26 1836.8 24.7C1864.7 23.3 1892.3 26.7 1906.2 28.3L1920 30L1920 0L1906.2 0C1892.3 0 1864.7 0 1836.8 0C1809 0 1781 0 1753.2 0C1725.3 0 1697.7 0 1669.8 0C1642 0 1614 0 1586.2 0C1558.3 0 1530.7 0 1502.8 0C1475 0 1447 0 1419.2 0C1391.3 0 1363.7 0 1335.8 0C1308 0 1280 0 1252.2 0C1224.3 0 1196.7 0 1168.8 0C1141 0 1113 0 1085.2 0C1057.3 0 1029.7 0 1001.8 0C974 0 946 0 918.2 0C890.3 0 862.7 0 834.8 0C807 0 779 0 751.2 0C723.3 0 695.7 0 667.8 0C640 0 612 0 584.2 0C556.3 0 528.7 0 500.8 0C473 0 445 0 417.2 0C389.3 0 361.7 0 333.8 0C306 0 278 0 250.2 0C222.3 0 194.7 0 166.8 0C139 0 111 0 83.2 0C55.3 0 27.7 0 13.8 0L0 0Z" fill="#af3ba6"></path></svg>